solid OpenSCAD_Model
  facet normal -1 0 0
    outer loop
      vertex -4.40166 -0.935602 0
      vertex -4.40166 0.935602 20
      vertex -4.40166 0.935602 0
    endloop
  endfacet
  facet normal -1 -0 0
    outer loop
      vertex -4.40166 0.935602 20
      vertex -4.40166 -0.935602 0
      vertex -4.40166 -0.935602 20
    endloop
  endfacet
  facet normal 0.809019 0.587783 0
    outer loop
      vertex 3.01109 3.34415 20
      vertex 3.58778 2.5504 3.80902
      vertex 3.01109 3.34415 3.80902
    endloop
  endfacet
  facet normal 0.809019 0.587782 8.29993e-08
    outer loop
      vertex 4.11095 1.83031 20
      vertex 3.58778 2.5504 3.80902
      vertex 3.01109 3.34415 20
    endloop
  endfacet
  facet normal 0.809011 0.587793 8.4488e-07
    outer loop
      vertex 3.58778 2.5504 3.80902
      vertex 4.11095 1.83031 20
      vertex 3.95106 2.0504 2.69098
    endloop
  endfacet
  facet normal 0.809016 0.587786 -4.52424e-06
    outer loop
      vertex 4.11095 1.83031 0
      vertex 3.01109 3.34415 2.00806
      vertex 3.95106 2.0504 2.69098
    endloop
  endfacet
  facet normal 0.809019 0.587782 0
    outer loop
      vertex 3.01109 3.34415 2.00806
      vertex 4.11095 1.83031 0
      vertex 3.01109 3.34415 0
    endloop
  endfacet
  facet normal 0.809043 0.58775 -0
    outer loop
      vertex 4.11095 1.83031 0
      vertex 3.95106 2.0504 2.69098
      vertex 4.11095 1.83031 20
    endloop
  endfacet
  facet normal 0.978147 0.207915 0
    outer loop
      vertex 4.5 0 20
      vertex 4.11095 1.83031 0
      vertex 4.11095 1.83031 20
    endloop
  endfacet
  facet normal 0.978147 0.207915 0
    outer loop
      vertex 4.11095 1.83031 0
      vertex 4.5 0 20
      vertex 4.5 0 0
    endloop
  endfacet
  facet normal 0.499999 -0.866026 -1.51515e-07
    outer loop
      vertex 1.39058 -4.27975 20
      vertex 2.41221 -3.68991 3.80902
      vertex 3.01109 -3.34415 20
    endloop
  endfacet
  facet normal 0.500009 -0.86602 6.78053e-07
    outer loop
      vertex 1.39058 -4.27975 20
      vertex 2.04894 -3.89965 2.69098
      vertex 2.41221 -3.68991 3.80902
    endloop
  endfacet
  facet normal 0.500002 -0.866024 -2.17497e-06
    outer loop
      vertex 2.04894 -3.89965 2.69098
      vertex 1.39058 -4.27975 0
      vertex 3 -3.35055 2
    endloop
  endfacet
  facet normal 0.499996 -0.866028 0
    outer loop
      vertex 1.39058 -4.27975 0
      vertex 2.04894 -3.89965 2.69098
      vertex 1.39058 -4.27975 20
    endloop
  endfacet
  facet normal 0.499996 -0.866028 0
    outer loop
      vertex 3.01109 -3.34415 20
      vertex 2.41221 -3.68991 3.80902
      vertex 3.01109 -3.34415 3.80902
    endloop
  endfacet
  facet normal 0.499999 -0.866026 1.21312e-06
    outer loop
      vertex 3.01109 -3.34415 0
      vertex 3 -3.35055 2
      vertex 1.39058 -4.27975 0
    endloop
  endfacet
  facet normal 0.499835 -0.866121 0
    outer loop
      vertex 3 -3.35055 2
      vertex 3.01109 -3.34415 0
      vertex 3.01109 -3.34415 2.00806
    endloop
  endfacet
  facet normal -0.669129 0.743146 1.87737e-07
    outer loop
      vertex -2.25 3.89711 20
      vertex -2.41221 3.75106 3.80902
      vertex -3.64058 2.64503 20
    endloop
  endfacet
  facet normal -0.669119 0.743155 0
    outer loop
      vertex -2.41221 3.75106 3.80902
      vertex -2.25 3.89711 20
      vertex -2.25 3.89711 3.30977
    endloop
  endfacet
  facet normal -0.669131 0.743144 -6.5367e-08
    outer loop
      vertex -3.58778 2.69257 3.80902
      vertex -3.64058 2.64503 20
      vertex -2.41221 3.75106 3.80902
    endloop
  endfacet
  facet normal -0.66912 0.743154 0
    outer loop
      vertex -3.64058 2.64503 20
      vertex -3.58778 2.69257 3.80902
      vertex -3.64058 2.64503 3.64654
    endloop
  endfacet
  facet normal -0.669129 0.743146 0
    outer loop
      vertex -2.25 3.89711 2.54491
      vertex -2.25 3.89711 0
      vertex -3 3.22181 2
    endloop
  endfacet
  facet normal -0.669129 0.743146 -3.54317e-07
    outer loop
      vertex -3.64058 2.64503 0
      vertex -3 3.22181 2
      vertex -2.25 3.89711 0
    endloop
  endfacet
  facet normal -0.66913 0.743145 0
    outer loop
      vertex -3 3.22181 2
      vertex -3.64058 2.64503 0
      vertex -3.64058 2.64503 2.46541
    endloop
  endfacet
  facet normal 0 0 1
    outer loop
      vertex 2.5 0 20
      vertex 4.5 0 20
      vertex 4.11095 1.83031 20
    endloop
  endfacet
  facet normal 0 0 1
    outer loop
      vertex 1.76777 1.76777 20
      vertex 4.11095 1.83031 20
      vertex 3.01109 3.34415 20
    endloop
  endfacet
  facet normal 0 0 1
    outer loop
      vertex 4.5 0 20
      vertex 2.5 0 20
      vertex 4.11095 -1.83031 20
    endloop
  endfacet
  facet normal -0 0 1
    outer loop
      vertex 1.76777 -1.76777 20
      vertex 4.11095 -1.83031 20
      vertex 2.5 0 20
    endloop
  endfacet
  facet normal 0 0 1
    outer loop
      vertex 4.11095 1.83031 20
      vertex 1.76777 1.76777 20
      vertex 2.5 0 20
    endloop
  endfacet
  facet normal 0 0 1
    outer loop
      vertex 1.39058 4.27975 20
      vertex 1.76777 1.76777 20
      vertex 3.01109 3.34415 20
    endloop
  endfacet
  facet normal 0 0 1
    outer loop
      vertex 1.39058 4.27975 20
      vertex 0 2.5 20
      vertex 1.76777 1.76777 20
    endloop
  endfacet
  facet normal 0 0 1
    outer loop
      vertex -0.470378 4.47535 20
      vertex 0 2.5 20
      vertex 1.39058 4.27975 20
    endloop
  endfacet
  facet normal -0 0 1
    outer loop
      vertex -2.25 3.89711 20
      vertex 0 2.5 20
      vertex -0.470378 4.47535 20
    endloop
  endfacet
  facet normal 0 0 1
    outer loop
      vertex 0 2.5 20
      vertex -2.25 3.89711 20
      vertex -1.76777 1.76777 20
    endloop
  endfacet
  facet normal -0 0 1
    outer loop
      vertex -3.64058 2.64503 20
      vertex -1.76777 1.76777 20
      vertex -2.25 3.89711 20
    endloop
  endfacet
  facet normal 0 0 1
    outer loop
      vertex -4.40166 0.935602 20
      vertex -1.76777 1.76777 20
      vertex -3.64058 2.64503 20
    endloop
  endfacet
  facet normal 0 0 1
    outer loop
      vertex 4.11095 -1.83031 20
      vertex 1.76777 -1.76777 20
      vertex 3.01109 -3.34415 20
    endloop
  endfacet
  facet normal 0 0 1
    outer loop
      vertex 1.76777 -1.76777 20
      vertex 1.39058 -4.27975 20
      vertex 3.01109 -3.34415 20
    endloop
  endfacet
  facet normal -0 0 1
    outer loop
      vertex 0 -2.5 20
      vertex 1.39058 -4.27975 20
      vertex 1.76777 -1.76777 20
    endloop
  endfacet
  facet normal 0 0 1
    outer loop
      vertex 0 -2.5 20
      vertex -0.470378 -4.47535 20
      vertex 1.39058 -4.27975 20
    endloop
  endfacet
  facet normal 0 0 1
    outer loop
      vertex -2.25 -3.89711 20
      vertex 0 -2.5 20
      vertex -1.76777 -1.76777 20
    endloop
  endfacet
  facet normal 0 0 1
    outer loop
      vertex 0 -2.5 20
      vertex -2.25 -3.89711 20
      vertex -0.470378 -4.47535 20
    endloop
  endfacet
  facet normal -0 0 1
    outer loop
      vertex -4.40166 -0.935602 20
      vertex -1.76777 -1.76777 20
      vertex -2.5 0 20
    endloop
  endfacet
  facet normal 0 0 1
    outer loop
      vertex -1.76777 1.76777 20
      vertex -4.40166 0.935602 20
      vertex -2.5 0 20
    endloop
  endfacet
  facet normal 0 0 1
    outer loop
      vertex -1.76777 -1.76777 20
      vertex -3.64058 -2.64503 20
      vertex -2.25 -3.89711 20
    endloop
  endfacet
  facet normal 0 0 1
    outer loop
      vertex -4.40166 -0.935602 20
      vertex -2.5 0 20
      vertex -4.40166 0.935602 20
    endloop
  endfacet
  facet normal 0 0 1
    outer loop
      vertex -1.76777 -1.76777 20
      vertex -4.40166 -0.935602 20
      vertex -3.64058 -2.64503 20
    endloop
  endfacet
  facet normal 0.978147 -0.207915 0
    outer loop
      vertex 4.11095 -1.83031 20
      vertex 4.5 0 0
      vertex 4.5 0 20
    endloop
  endfacet
  facet normal 0.978147 -0.207915 0
    outer loop
      vertex 4.5 0 0
      vertex 4.11095 -1.83031 20
      vertex 4.11095 -1.83031 0
    endloop
  endfacet
  facet normal -0.30902 -0.951056 5.30512e-07
    outer loop
      vertex -2.25 -3.89711 20
      vertex -0.822899 -4.36081 16.1326
      vertex -0.470378 -4.47535 20
    endloop
  endfacet
  facet normal -0.309021 -0.951055 1.28929e-07
    outer loop
      vertex -2.25 -3.89711 20
      vertex -1.33148 -4.19556 14.5674
      vertex -0.822899 -4.36081 16.1326
    endloop
  endfacet
  facet normal -0.309021 -0.951055 0
    outer loop
      vertex -2.25 -3.89711 3.30977
      vertex -1.33148 -4.19556 14.5674
      vertex -2.25 -3.89711 20
    endloop
  endfacet
  facet normal -0.309018 -0.951056 -2.94624e-07
    outer loop
      vertex -2.25 -3.89711 3.30977
      vertex -0.470378 -4.47535 13.9417
      vertex -1.33148 -4.19556 14.5674
    endloop
  endfacet
  facet normal -0.309013 -0.951058 3.86504e-06
    outer loop
      vertex -0.470378 -4.47535 0
      vertex -2.25 -3.89711 3.30977
      vertex -2.04894 -3.96244 2.69098
    endloop
  endfacet
  facet normal -0.30902 -0.951056 0
    outer loop
      vertex -0.470378 -4.47535 0
      vertex -2.25 -3.89711 2.54491
      vertex -2.25 -3.89711 0
    endloop
  endfacet
  facet normal -0.309023 -0.951055 -2.18264e-06
    outer loop
      vertex -2.25 -3.89711 2.54491
      vertex -0.470378 -4.47535 0
      vertex -2.04894 -3.96244 2.69098
    endloop
  endfacet
  facet normal -0.30902 -0.951056 0
    outer loop
      vertex -2.25 -3.89711 3.30977
      vertex -0.470378 -4.47535 0
      vertex -0.470378 -4.47535 13.9417
    endloop
  endfacet
  facet normal -0.309015 -0.951057 -0
    outer loop
      vertex -0.470378 -4.47535 20
      vertex -0.822899 -4.36081 16.1326
      vertex -0.470378 -4.47535 16.1326
    endloop
  endfacet
  facet normal 0.104531 -0.994522 0
    outer loop
      vertex -0.470378 -4.47535 13.9417
      vertex -0.470378 -4.47535 0
      vertex 0 -4.42591 13.6
    endloop
  endfacet
  facet normal 0.104529 -0.994522 0
    outer loop
      vertex 0.822899 -4.33942 16.1326
      vertex -0.470378 -4.47535 20
      vertex -0.470378 -4.47535 16.1326
    endloop
  endfacet
  facet normal 0.104531 -0.994522 6.8543e-07
    outer loop
      vertex -0.470378 -4.47535 20
      vertex 0.822899 -4.33942 16.1326
      vertex 1.39058 -4.27975 20
    endloop
  endfacet
  facet normal 0.104539 -0.994521 -4.17251e-07
    outer loop
      vertex 1.33148 -4.28596 14.5674
      vertex 1.39058 -4.27975 20
      vertex 0.822899 -4.33942 16.1326
    endloop
  endfacet
  facet normal 0.104531 -0.994522 -6.80906e-09
    outer loop
      vertex 1.39058 -4.27975 0
      vertex 0 -4.42591 13.6
      vertex -0.470378 -4.47535 0
    endloop
  endfacet
  facet normal 0.104501 -0.994525 0
    outer loop
      vertex 1.33148 -4.28596 14.5674
      vertex 1.39058 -4.27975 0
      vertex 1.39058 -4.27975 20
    endloop
  endfacet
  facet normal 0.104533 -0.994521 1.30579e-07
    outer loop
      vertex 0 -4.42591 13.6
      vertex 1.39058 -4.27975 0
      vertex 1.33148 -4.28596 14.5674
    endloop
  endfacet
  facet normal 0.809043 -0.58775 0
    outer loop
      vertex 4.11095 -1.83031 20
      vertex 3.95106 -2.0504 2.69098
      vertex 4.11095 -1.83031 0
    endloop
  endfacet
  facet normal 0.809011 -0.587793 8.4488e-07
    outer loop
      vertex 4.11095 -1.83031 20
      vertex 3.58778 -2.5504 3.80902
      vertex 3.95106 -2.0504 2.69098
    endloop
  endfacet
  facet normal 0.809019 -0.587782 8.29993e-08
    outer loop
      vertex 3.01109 -3.34415 20
      vertex 3.58778 -2.5504 3.80902
      vertex 4.11095 -1.83031 20
    endloop
  endfacet
  facet normal 0.809019 -0.587783 0
    outer loop
      vertex 3.58778 -2.5504 3.80902
      vertex 3.01109 -3.34415 20
      vertex 3.01109 -3.34415 3.80902
    endloop
  endfacet
  facet normal 0.809016 -0.587786 -4.52424e-06
    outer loop
      vertex 3.01109 -3.34415 2.00806
      vertex 4.11095 -1.83031 0
      vertex 3.95106 -2.0504 2.69098
    endloop
  endfacet
  facet normal 0.809019 -0.587782 0
    outer loop
      vertex 4.11095 -1.83031 0
      vertex 3.01109 -3.34415 2.00806
      vertex 3.01109 -3.34415 0
    endloop
  endfacet
  facet normal 0.104531 0.994522 6.8543e-07
    outer loop
      vertex 1.39058 4.27975 20
      vertex 0.822899 4.33942 16.1326
      vertex -0.470378 4.47535 20
    endloop
  endfacet
  facet normal 0.104539 0.994521 -4.17251e-07
    outer loop
      vertex 1.39058 4.27975 20
      vertex 1.33148 4.28596 14.5674
      vertex 0.822899 4.33942 16.1326
    endloop
  endfacet
  facet normal 0.104533 0.994521 1.30579e-07
    outer loop
      vertex 1.33148 4.28596 14.5674
      vertex 1.39058 4.27975 0
      vertex 0 4.42591 13.6
    endloop
  endfacet
  facet normal 0.104501 0.994525 -0
    outer loop
      vertex 1.39058 4.27975 0
      vertex 1.33148 4.28596 14.5674
      vertex 1.39058 4.27975 20
    endloop
  endfacet
  facet normal 0.104529 0.994522 0
    outer loop
      vertex -0.470378 4.47535 20
      vertex 0.822899 4.33942 16.1326
      vertex -0.470378 4.47535 16.1326
    endloop
  endfacet
  facet normal 0.104531 0.994522 -6.80906e-09
    outer loop
      vertex -0.470378 4.47535 0
      vertex 0 4.42591 13.6
      vertex 1.39058 4.27975 0
    endloop
  endfacet
  facet normal 0.104531 0.994522 0
    outer loop
      vertex 0 4.42591 13.6
      vertex -0.470378 4.47535 0
      vertex -0.470378 4.47535 13.9417
    endloop
  endfacet
  facet normal -0.309015 0.951057 0
    outer loop
      vertex -0.822899 4.36081 16.1326
      vertex -0.470378 4.47535 20
      vertex -0.470378 4.47535 16.1326
    endloop
  endfacet
  facet normal -0.30902 0.951056 5.30512e-07
    outer loop
      vertex -0.470378 4.47535 20
      vertex -0.822899 4.36081 16.1326
      vertex -2.25 3.89711 20
    endloop
  endfacet
  facet normal -0.309021 0.951055 1.28929e-07
    outer loop
      vertex -1.33148 4.19556 14.5674
      vertex -2.25 3.89711 20
      vertex -0.822899 4.36081 16.1326
    endloop
  endfacet
  facet normal -0.309021 0.951055 0
    outer loop
      vertex -1.33148 4.19556 14.5674
      vertex -2.25 3.89711 3.30977
      vertex -2.25 3.89711 20
    endloop
  endfacet
  facet normal -0.309018 0.951056 -2.94624e-07
    outer loop
      vertex -0.470378 4.47535 13.9417
      vertex -2.25 3.89711 3.30977
      vertex -1.33148 4.19556 14.5674
    endloop
  endfacet
  facet normal -0.30902 0.951056 0
    outer loop
      vertex -0.470378 4.47535 0
      vertex -2.25 3.89711 3.30977
      vertex -0.470378 4.47535 13.9417
    endloop
  endfacet
  facet normal -0.309013 0.951058 3.86504e-06
    outer loop
      vertex -2.25 3.89711 3.30977
      vertex -0.470378 4.47535 0
      vertex -2.04894 3.96244 2.69098
    endloop
  endfacet
  facet normal -0.309023 0.951055 -2.18264e-06
    outer loop
      vertex -0.470378 4.47535 0
      vertex -2.25 3.89711 2.54491
      vertex -2.04894 3.96244 2.69098
    endloop
  endfacet
  facet normal -0.30902 0.951056 0
    outer loop
      vertex -2.25 3.89711 2.54491
      vertex -0.470378 4.47535 0
      vertex -2.25 3.89711 0
    endloop
  endfacet
  facet normal -0.913546 0.406736 0
    outer loop
      vertex -3.64058 2.64503 0
      vertex -3.95106 1.94768 2.69098
      vertex -3.64058 2.64503 2.46541
    endloop
  endfacet
  facet normal -0.913547 0.406734 -8.07775e-07
    outer loop
      vertex -3.95106 1.94768 2.69098
      vertex -3.64058 2.64503 0
      vertex -4.40166 0.935602 0
    endloop
  endfacet
  facet normal -0.913546 0.406736 2.85007e-07
    outer loop
      vertex -4.40166 0.935602 20
      vertex -3.64058 2.64503 3.64654
      vertex -3.95106 1.94768 2.69098
    endloop
  endfacet
  facet normal -0.913548 0.406732 0
    outer loop
      vertex -4.40166 0.935602 20
      vertex -3.95106 1.94768 2.69098
      vertex -4.40166 0.935602 0
    endloop
  endfacet
  facet normal -0.913547 0.406734 0
    outer loop
      vertex -3.64058 2.64503 3.64654
      vertex -4.40166 0.935602 20
      vertex -3.64058 2.64503 20
    endloop
  endfacet
  facet normal 0.499835 0.866121 0
    outer loop
      vertex 3.01109 3.34415 2.00806
      vertex 3.01109 3.34415 0
      vertex 3 3.35055 2
    endloop
  endfacet
  facet normal 0.499996 0.866028 0
    outer loop
      vertex 2.41221 3.68991 3.80902
      vertex 3.01109 3.34415 20
      vertex 3.01109 3.34415 3.80902
    endloop
  endfacet
  facet normal 0.499999 0.866026 -1.51515e-07
    outer loop
      vertex 3.01109 3.34415 20
      vertex 2.41221 3.68991 3.80902
      vertex 1.39058 4.27975 20
    endloop
  endfacet
  facet normal 0.500009 0.86602 6.78053e-07
    outer loop
      vertex 2.04894 3.89965 2.69098
      vertex 1.39058 4.27975 20
      vertex 2.41221 3.68991 3.80902
    endloop
  endfacet
  facet normal 0.499999 0.866026 1.21312e-06
    outer loop
      vertex 1.39058 4.27975 0
      vertex 3 3.35055 2
      vertex 3.01109 3.34415 0
    endloop
  endfacet
  facet normal 0.499996 0.866028 0
    outer loop
      vertex 2.04894 3.89965 2.69098
      vertex 1.39058 4.27975 0
      vertex 1.39058 4.27975 20
    endloop
  endfacet
  facet normal 0.500002 0.866024 -2.17497e-06
    outer loop
      vertex 3 3.35055 2
      vertex 1.39058 4.27975 0
      vertex 2.04894 3.89965 2.69098
    endloop
  endfacet
  facet normal -0.66913 -0.743145 -0
    outer loop
      vertex -3.64058 -2.64503 2.46541
      vertex -3.64058 -2.64503 0
      vertex -3 -3.22181 2
    endloop
  endfacet
  facet normal -0.669129 -0.743146 -3.54317e-07
    outer loop
      vertex -2.25 -3.89711 0
      vertex -3 -3.22181 2
      vertex -3.64058 -2.64503 0
    endloop
  endfacet
  facet normal -0.669129 -0.743146 0
    outer loop
      vertex -3 -3.22181 2
      vertex -2.25 -3.89711 0
      vertex -2.25 -3.89711 2.54491
    endloop
  endfacet
  facet normal -0.669129 -0.743146 -5.44878e-08
    outer loop
      vertex -3.64058 -2.64503 20
      vertex -3.58778 -2.69257 3.80902
      vertex -2.25 -3.89711 20
    endloop
  endfacet
  facet normal -0.66912 -0.743154 0
    outer loop
      vertex -3.58778 -2.69257 3.80902
      vertex -3.64058 -2.64503 20
      vertex -3.64058 -2.64503 3.64654
    endloop
  endfacet
  facet normal -0.669131 -0.743144 2.21159e-07
    outer loop
      vertex -2.41221 -3.75106 3.80902
      vertex -2.25 -3.89711 20
      vertex -3.58778 -2.69257 3.80902
    endloop
  endfacet
  facet normal -0.669119 -0.743155 -0
    outer loop
      vertex -2.25 -3.89711 20
      vertex -2.41221 -3.75106 3.80902
      vertex -2.25 -3.89711 3.30977
    endloop
  endfacet
  facet normal -0.913548 -0.406732 0
    outer loop
      vertex -4.40166 -0.935602 0
      vertex -3.95106 -1.94768 2.69098
      vertex -4.40166 -0.935602 20
    endloop
  endfacet
  facet normal -0.913547 -0.406734 -8.07775e-07
    outer loop
      vertex -3.64058 -2.64503 0
      vertex -3.95106 -1.94768 2.69098
      vertex -4.40166 -0.935602 0
    endloop
  endfacet
  facet normal -0.913546 -0.406736 0
    outer loop
      vertex -3.95106 -1.94768 2.69098
      vertex -3.64058 -2.64503 0
      vertex -3.64058 -2.64503 2.46541
    endloop
  endfacet
  facet normal -0.913546 -0.406736 2.85007e-07
    outer loop
      vertex -3.64058 -2.64503 3.64654
      vertex -4.40166 -0.935602 20
      vertex -3.95106 -1.94768 2.69098
    endloop
  endfacet
  facet normal -0.913547 -0.406734 0
    outer loop
      vertex -4.40166 -0.935602 20
      vertex -3.64058 -2.64503 3.64654
      vertex -3.64058 -2.64503 20
    endloop
  endfacet
  facet normal 0 0 -1
    outer loop
      vertex 3.5 0 0
      vertex 4.5 0 0
      vertex 4.11095 -1.83031 0
    endloop
  endfacet
  facet normal 0 0 -1
    outer loop
      vertex 4.5 0 0
      vertex 3.5 0 0
      vertex 4.11095 1.83031 0
    endloop
  endfacet
  facet normal 0 0 -1
    outer loop
      vertex 2.94439 -1.89224 0
      vertex 4.11095 -1.83031 0
      vertex 3.01109 -3.34415 0
    endloop
  endfacet
  facet normal -0 0 -1
    outer loop
      vertex 4.11095 -1.83031 0
      vertex 2.94439 -1.89224 0
      vertex 3.5 0 0
    endloop
  endfacet
  facet normal 0 0 -1
    outer loop
      vertex 3.01109 -3.34415 0
      vertex 1.45395 -3.18371 0
      vertex 2.94439 -1.89224 0
    endloop
  endfacet
  facet normal 0 0 -1
    outer loop
      vertex 1.39058 -4.27975 0
      vertex 1.45395 -3.18371 0
      vertex 3.01109 -3.34415 0
    endloop
  endfacet
  facet normal 0 0 -1
    outer loop
      vertex -0.498101 -3.46437 0
      vertex 1.39058 -4.27975 0
      vertex -0.470378 -4.47535 0
    endloop
  endfacet
  facet normal 0 0 -1
    outer loop
      vertex 1.39058 -4.27975 0
      vertex -0.498101 -3.46437 0
      vertex 1.45395 -3.18371 0
    endloop
  endfacet
  facet normal 0 0 -1
    outer loop
      vertex -2.25 -3.89711 0
      vertex -0.498101 -3.46437 0
      vertex -0.470378 -4.47535 0
    endloop
  endfacet
  facet normal 0 0 -1
    outer loop
      vertex -2.25 -3.89711 0
      vertex -2.29201 -2.64512 0
      vertex -0.498101 -3.46437 0
    endloop
  endfacet
  facet normal 0 0 -1
    outer loop
      vertex -3.64058 -2.64503 0
      vertex -2.29201 -2.64512 0
      vertex -2.25 -3.89711 0
    endloop
  endfacet
  facet normal 0 0 -1
    outer loop
      vertex -4.40166 -0.935602 0
      vertex -3.35822 -0.986063 0
      vertex -3.64058 -2.64503 0
    endloop
  endfacet
  facet normal 0 0 -1
    outer loop
      vertex -2.29201 -2.64512 0
      vertex -3.64058 -2.64503 0
      vertex -3.35822 -0.986063 0
    endloop
  endfacet
  facet normal 0 0 -1
    outer loop
      vertex 2.94439 1.89224 0
      vertex 4.11095 1.83031 0
      vertex 3.5 0 0
    endloop
  endfacet
  facet normal 0 0 -1
    outer loop
      vertex 4.11095 1.83031 0
      vertex 2.94439 1.89224 0
      vertex 3.01109 3.34415 0
    endloop
  endfacet
  facet normal 0 0 -1
    outer loop
      vertex 1.45395 3.18371 0
      vertex 3.01109 3.34415 0
      vertex 2.94439 1.89224 0
    endloop
  endfacet
  facet normal 0 0 -1
    outer loop
      vertex 1.45395 3.18371 0
      vertex 1.39058 4.27975 0
      vertex 3.01109 3.34415 0
    endloop
  endfacet
  facet normal 0 0 -1
    outer loop
      vertex -0.498101 3.46437 0
      vertex 1.39058 4.27975 0
      vertex 1.45395 3.18371 0
    endloop
  endfacet
  facet normal -0 0 -1
    outer loop
      vertex 1.39058 4.27975 0
      vertex -0.498101 3.46437 0
      vertex -0.470378 4.47535 0
    endloop
  endfacet
  facet normal 0 0 -1
    outer loop
      vertex -0.498101 3.46437 0
      vertex -2.25 3.89711 0
      vertex -0.470378 4.47535 0
    endloop
  endfacet
  facet normal 0 0 -1
    outer loop
      vertex -2.29201 2.64512 0
      vertex -2.25 3.89711 0
      vertex -0.498101 3.46437 0
    endloop
  endfacet
  facet normal 0 0 -1
    outer loop
      vertex -3.64058 2.64503 0
      vertex -2.29201 2.64512 0
      vertex -3.35822 0.986063 0
    endloop
  endfacet
  facet normal -0 0 -1
    outer loop
      vertex -2.29201 2.64512 0
      vertex -3.64058 2.64503 0
      vertex -2.25 3.89711 0
    endloop
  endfacet
  facet normal 0 0 -1
    outer loop
      vertex -3.35822 -0.986063 0
      vertex -4.40166 -0.935602 0
      vertex -3.35822 0.986063 0
    endloop
  endfacet
  facet normal 0 0 -1
    outer loop
      vertex -4.40166 0.935602 0
      vertex -3.35822 0.986063 0
      vertex -4.40166 -0.935602 0
    endloop
  endfacet
  facet normal -0 0 -1
    outer loop
      vertex -3.35822 0.986063 0
      vertex -4.40166 0.935602 0
      vertex -3.64058 2.64503 0
    endloop
  endfacet
  facet normal -0.65486 -0.75575 6.47647e-07
    outer loop
      vertex 1.45395 3.18371 10
      vertex 2.41221 2.35337 3.80902
      vertex 2.94439 1.89224 10
    endloop
  endfacet
  facet normal -0.654865 -0.755746 -7.90031e-07
    outer loop
      vertex 1.45395 3.18371 10
      vertex 2.04894 2.66815 2.69098
      vertex 2.41221 2.35337 3.80902
    endloop
  endfacet
  facet normal -0.654859 -0.755751 0
    outer loop
      vertex 1.45395 3.18371 0
      vertex 2.04894 2.66815 2.69098
      vertex 1.45395 3.18371 10
    endloop
  endfacet
  facet normal -0.65486 -0.75575 1.32114e-07
    outer loop
      vertex 1.45395 3.18371 0
      vertex 2.94439 1.89224 2.04041
      vertex 2.04894 2.66815 2.69098
    endloop
  endfacet
  facet normal -0.65486 -0.75575 -0
    outer loop
      vertex 2.94439 1.89224 2.04041
      vertex 1.45395 3.18371 0
      vertex 2.94439 1.89224 0
    endloop
  endfacet
  facet normal -0.654855 -0.755754 -0
    outer loop
      vertex 2.94439 1.89224 10
      vertex 2.41221 2.35337 3.80902
      vertex 2.94439 1.89224 3.80902
    endloop
  endfacet
  facet normal -0.959493 -0.281732 0
    outer loop
      vertex 3.5 0 3.80902
      vertex 2.94439 1.89224 10
      vertex 2.94439 1.89224 3.80902
    endloop
  endfacet
  facet normal -0.959493 -0.281732 0
    outer loop
      vertex 2.94439 1.89224 10
      vertex 3.5 0 3.80902
      vertex 3.5 0 10
    endloop
  endfacet
  facet normal -0.959497 -0.281719 0
    outer loop
      vertex 2.94439 1.89224 0
      vertex 3 1.70284 2
      vertex 2.94439 1.89224 2.04041
    endloop
  endfacet
  facet normal -0.959493 -0.281732 -1.28481e-06
    outer loop
      vertex 3.5 0 0
      vertex 3 1.70284 2
      vertex 2.94439 1.89224 0
    endloop
  endfacet
  facet normal -0.959493 -0.281733 0
    outer loop
      vertex 3 1.70284 2
      vertex 3.5 0 0
      vertex 3.5 0 2.36327
    endloop
  endfacet
  facet normal -0.142314 -0.989822 0
    outer loop
      vertex -0.498101 3.46437 0
      vertex 1.45395 3.18371 10
      vertex -0.498101 3.46437 10
    endloop
  endfacet
  facet normal -0.142314 -0.989822 -0
    outer loop
      vertex 1.45395 3.18371 10
      vertex -0.498101 3.46437 0
      vertex 1.45395 3.18371 0
    endloop
  endfacet
  facet normal 0.415415 -0.909632 0
    outer loop
      vertex -2.29201 2.64512 3.43907
      vertex -0.498101 3.46437 10
      vertex -2.29201 2.64512 10
    endloop
  endfacet
  facet normal 0.415421 -0.909629 -2.08782e-06
    outer loop
      vertex -2.04894 2.75613 2.69098
      vertex -0.498101 3.46437 10
      vertex -2.29201 2.64512 3.43907
    endloop
  endfacet
  facet normal 0.415415 -0.909632 0
    outer loop
      vertex -0.498101 3.46437 0
      vertex -2.29201 2.64512 2.51438
      vertex -2.29201 2.64512 0
    endloop
  endfacet
  facet normal 0.415422 -0.909629 6.60733e-06
    outer loop
      vertex -2.29201 2.64512 2.51438
      vertex -0.498101 3.46437 0
      vertex -2.04894 2.75613 2.69098
    endloop
  endfacet
  facet normal 0.415413 -0.909633 0
    outer loop
      vertex -2.04894 2.75613 2.69098
      vertex -0.498101 3.46437 0
      vertex -0.498101 3.46437 10
    endloop
  endfacet
  facet normal 1 -0 0
    outer loop
      vertex -3.35822 -0.986063 10
      vertex -3.35822 0.986063 3.80902
      vertex -3.35822 0.986063 10
    endloop
  endfacet
  facet normal 1 0 0
    outer loop
      vertex -3.35822 0.986063 3.80902
      vertex -3.35822 -0.986063 10
      vertex -3.35822 -0.986063 3.80902
    endloop
  endfacet
  facet normal 1 -0 0
    outer loop
      vertex -3.35822 -0.986063 2.26027
      vertex -3.35822 0.986063 0
      vertex -3.35822 0.986063 2.26027
    endloop
  endfacet
  facet normal 1 0 0
    outer loop
      vertex -3.35822 0.986063 0
      vertex -3.35822 -0.986063 2.26027
      vertex -3.35822 -0.986063 0
    endloop
  endfacet
  facet normal -0.142314 0.989822 0
    outer loop
      vertex 1.45395 -3.18371 0
      vertex -0.498101 -3.46437 10
      vertex 1.45395 -3.18371 10
    endloop
  endfacet
  facet normal -0.142314 0.989822 0
    outer loop
      vertex -0.498101 -3.46437 10
      vertex 1.45395 -3.18371 0
      vertex -0.498101 -3.46437 0
    endloop
  endfacet
  facet normal -0.654855 0.755754 0
    outer loop
      vertex 2.41221 -2.35337 3.80902
      vertex 2.94439 -1.89224 10
      vertex 2.94439 -1.89224 3.80902
    endloop
  endfacet
  facet normal -0.65486 0.75575 6.47647e-07
    outer loop
      vertex 2.94439 -1.89224 10
      vertex 2.41221 -2.35337 3.80902
      vertex 1.45395 -3.18371 10
    endloop
  endfacet
  facet normal -0.654865 0.755746 -7.90031e-07
    outer loop
      vertex 2.04894 -2.66815 2.69098
      vertex 1.45395 -3.18371 10
      vertex 2.41221 -2.35337 3.80902
    endloop
  endfacet
  facet normal -0.65486 0.75575 0
    outer loop
      vertex 1.45395 -3.18371 0
      vertex 2.94439 -1.89224 2.04041
      vertex 2.94439 -1.89224 0
    endloop
  endfacet
  facet normal -0.654859 0.755751 0
    outer loop
      vertex 2.04894 -2.66815 2.69098
      vertex 1.45395 -3.18371 0
      vertex 1.45395 -3.18371 10
    endloop
  endfacet
  facet normal -0.65486 0.75575 1.32114e-07
    outer loop
      vertex 2.94439 -1.89224 2.04041
      vertex 1.45395 -3.18371 0
      vertex 2.04894 -2.66815 2.69098
    endloop
  endfacet
  facet normal 0.841255 0.540639 0
    outer loop
      vertex -3.35822 -0.986063 10
      vertex -2.41221 -2.45809 3.80902
      vertex -3.35822 -0.986063 3.80902
    endloop
  endfacet
  facet normal 0.841254 0.54064 -4.41882e-07
    outer loop
      vertex -2.29201 -2.64512 10
      vertex -2.41221 -2.45809 3.80902
      vertex -3.35822 -0.986063 10
    endloop
  endfacet
  facet normal 0.841247 0.540651 0
    outer loop
      vertex -2.41221 -2.45809 3.80902
      vertex -2.29201 -2.64512 10
      vertex -2.29201 -2.64512 3.43907
    endloop
  endfacet
  facet normal 0.841256 0.540637 0
    outer loop
      vertex -3 -1.54347 2
      vertex -3.35822 -0.986063 0
      vertex -3.35822 -0.986063 2.26027
    endloop
  endfacet
  facet normal 0.841253 0.540642 -0
    outer loop
      vertex -2.29201 -2.64512 0
      vertex -3 -1.54347 2
      vertex -2.29201 -2.64512 2.51438
    endloop
  endfacet
  facet normal 0.841254 0.54064 1.39923e-06
    outer loop
      vertex -3 -1.54347 2
      vertex -2.29201 -2.64512 0
      vertex -3.35822 -0.986063 0
    endloop
  endfacet
  facet normal -0.959493 0.281732 0
    outer loop
      vertex 2.94439 -1.89224 3.80902
      vertex 3.5 0 10
      vertex 3.5 0 3.80902
    endloop
  endfacet
  facet normal -0.959493 0.281732 0
    outer loop
      vertex 3.5 0 10
      vertex 2.94439 -1.89224 3.80902
      vertex 2.94439 -1.89224 10
    endloop
  endfacet
  facet normal -0.959493 0.281733 0
    outer loop
      vertex 3.5 0 0
      vertex 3 -1.70284 2
      vertex 3.5 0 2.36327
    endloop
  endfacet
  facet normal -0.959493 0.281732 -1.28481e-06
    outer loop
      vertex 2.94439 -1.89224 0
      vertex 3 -1.70284 2
      vertex 3.5 0 0
    endloop
  endfacet
  facet normal -0.959497 0.281719 0
    outer loop
      vertex 3 -1.70284 2
      vertex 2.94439 -1.89224 0
      vertex 2.94439 -1.89224 2.04041
    endloop
  endfacet
  facet normal 0.841247 -0.540651 0
    outer loop
      vertex -2.29201 2.64512 10
      vertex -2.41221 2.45809 3.80902
      vertex -2.29201 2.64512 3.43907
    endloop
  endfacet
  facet normal 0.841254 -0.54064 -4.41882e-07
    outer loop
      vertex -3.35822 0.986063 10
      vertex -2.41221 2.45809 3.80902
      vertex -2.29201 2.64512 10
    endloop
  endfacet
  facet normal 0.841255 -0.540639 0
    outer loop
      vertex -2.41221 2.45809 3.80902
      vertex -3.35822 0.986063 10
      vertex -3.35822 0.986063 3.80902
    endloop
  endfacet
  facet normal 0.841253 -0.540642 0
    outer loop
      vertex -3 1.54347 2
      vertex -2.29201 2.64512 0
      vertex -2.29201 2.64512 2.51438
    endloop
  endfacet
  facet normal 0.841256 -0.540637 0
    outer loop
      vertex -3.35822 0.986063 0
      vertex -3 1.54347 2
      vertex -3.35822 0.986063 2.26027
    endloop
  endfacet
  facet normal 0.841254 -0.54064 1.39923e-06
    outer loop
      vertex -3 1.54347 2
      vertex -3.35822 0.986063 0
      vertex -2.29201 2.64512 0
    endloop
  endfacet
  facet normal 0 0 -1
    outer loop
      vertex 2.5 0 10
      vertex 3.5 0 10
      vertex 2.94439 -1.89224 10
    endloop
  endfacet
  facet normal 0 0 -1
    outer loop
      vertex 3.5 0 10
      vertex 2.5 0 10
      vertex 2.94439 1.89224 10
    endloop
  endfacet
  facet normal 0 0 -1
    outer loop
      vertex 2.94439 -1.89224 10
      vertex 1.76777 -1.76777 10
      vertex 2.5 0 10
    endloop
  endfacet
  facet normal 0 0 -1
    outer loop
      vertex 1.45395 -3.18371 10
      vertex 1.76777 -1.76777 10
      vertex 2.94439 -1.89224 10
    endloop
  endfacet
  facet normal 0 0 -1
    outer loop
      vertex 1.45395 -3.18371 10
      vertex 0 -2.5 10
      vertex 1.76777 -1.76777 10
    endloop
  endfacet
  facet normal 0 0 -1
    outer loop
      vertex -0.498101 -3.46437 10
      vertex 0 -2.5 10
      vertex 1.45395 -3.18371 10
    endloop
  endfacet
  facet normal 0 0 -1
    outer loop
      vertex -0.498101 -3.46437 10
      vertex -1.76777 -1.76777 10
      vertex 0 -2.5 10
    endloop
  endfacet
  facet normal 0 0 -1
    outer loop
      vertex -2.29201 -2.64512 10
      vertex -1.76777 -1.76777 10
      vertex -0.498101 -3.46437 10
    endloop
  endfacet
  facet normal 0 0 -1
    outer loop
      vertex -3.35822 -0.986063 10
      vertex -1.76777 -1.76777 10
      vertex -2.29201 -2.64512 10
    endloop
  endfacet
  facet normal 0 0 -1
    outer loop
      vertex -1.76777 -1.76777 10
      vertex -3.35822 -0.986063 10
      vertex -2.5 0 10
    endloop
  endfacet
  facet normal 0 0 -1
    outer loop
      vertex 1.76777 1.76777 10
      vertex 2.94439 1.89224 10
      vertex 2.5 0 10
    endloop
  endfacet
  facet normal 0 0 -1
    outer loop
      vertex 1.76777 1.76777 10
      vertex 1.45395 3.18371 10
      vertex 2.94439 1.89224 10
    endloop
  endfacet
  facet normal 0 0 -1
    outer loop
      vertex 0 2.5 10
      vertex 1.45395 3.18371 10
      vertex 1.76777 1.76777 10
    endloop
  endfacet
  facet normal 0 0 -1
    outer loop
      vertex 0 2.5 10
      vertex -0.498101 3.46437 10
      vertex 1.45395 3.18371 10
    endloop
  endfacet
  facet normal 0 0 -1
    outer loop
      vertex -1.76777 1.76777 10
      vertex -0.498101 3.46437 10
      vertex 0 2.5 10
    endloop
  endfacet
  facet normal 0 0 -1
    outer loop
      vertex -1.76777 1.76777 10
      vertex -2.29201 2.64512 10
      vertex -0.498101 3.46437 10
    endloop
  endfacet
  facet normal 0 0 -1
    outer loop
      vertex -3.35822 0.986063 10
      vertex -1.76777 1.76777 10
      vertex -2.5 0 10
    endloop
  endfacet
  facet normal 0 0 -1
    outer loop
      vertex -3.35822 0.986063 10
      vertex -2.5 0 10
      vertex -3.35822 -0.986063 10
    endloop
  endfacet
  facet normal -0 0 -1
    outer loop
      vertex -1.76777 1.76777 10
      vertex -3.35822 0.986063 10
      vertex -2.29201 2.64512 10
    endloop
  endfacet
  facet normal 0.415415 0.909632 0
    outer loop
      vertex -0.498101 -3.46437 10
      vertex -2.29201 -2.64512 3.43907
      vertex -2.29201 -2.64512 10
    endloop
  endfacet
  facet normal 0.415421 0.909629 -2.08782e-06
    outer loop
      vertex -0.498101 -3.46437 10
      vertex -2.04894 -2.75613 2.69098
      vertex -2.29201 -2.64512 3.43907
    endloop
  endfacet
  facet normal 0.415413 0.909633 -0
    outer loop
      vertex -0.498101 -3.46437 0
      vertex -2.04894 -2.75613 2.69098
      vertex -0.498101 -3.46437 10
    endloop
  endfacet
  facet normal 0.415422 0.909629 6.60733e-06
    outer loop
      vertex -0.498101 -3.46437 0
      vertex -2.29201 -2.64512 2.51438
      vertex -2.04894 -2.75613 2.69098
    endloop
  endfacet
  facet normal 0.415415 0.909632 0
    outer loop
      vertex -2.29201 -2.64512 2.51438
      vertex -0.498101 -3.46437 0
      vertex -2.29201 -2.64512 0
    endloop
  endfacet
  facet normal 0.92388 0.382682 0
    outer loop
      vertex -1.76777 -1.76777 20
      vertex -2.5 0 10
      vertex -2.5 0 20
    endloop
  endfacet
  facet normal 0.92388 0.382682 0
    outer loop
      vertex -2.5 0 10
      vertex -1.76777 -1.76777 20
      vertex -1.76777 -1.76777 10
    endloop
  endfacet
  facet normal -0.382687 -0.923878 0
    outer loop
      vertex 0.822899 2.15914 16.1326
      vertex 0 2.5 20
      vertex 0 2.5 16.1326
    endloop
  endfacet
  facet normal -0.382682 -0.92388 1.45236e-06
    outer loop
      vertex 0 2.5 20
      vertex 0.822899 2.15914 16.1326
      vertex 1.76777 1.76777 20
    endloop
  endfacet
  facet normal -0.382679 -0.923881 8.52318e-07
    outer loop
      vertex 1.33148 1.94848 14.5674
      vertex 1.76777 1.76777 20
      vertex 0.822899 2.15914 16.1326
    endloop
  endfacet
  facet normal -0.382682 -0.92388 0
    outer loop
      vertex 1.76777 1.76777 10
      vertex 0 2.5 13.6
      vertex 0 2.5 10
    endloop
  endfacet
  facet normal -0.38267 -0.923885 0
    outer loop
      vertex 1.33148 1.94848 14.5674
      vertex 1.76777 1.76777 10
      vertex 1.76777 1.76777 20
    endloop
  endfacet
  facet normal -0.382684 -0.923879 -1.54987e-06
    outer loop
      vertex 0 2.5 13.6
      vertex 1.76777 1.76777 10
      vertex 1.33148 1.94848 14.5674
    endloop
  endfacet
  facet normal -0.92388 -0.382682 0
    outer loop
      vertex 2.5 0 10
      vertex 1.76777 1.76777 20
      vertex 1.76777 1.76777 10
    endloop
  endfacet
  facet normal -0.92388 -0.382682 0
    outer loop
      vertex 1.76777 1.76777 20
      vertex 2.5 0 10
      vertex 2.5 0 20
    endloop
  endfacet
  facet normal -0.92388 0.382682 0
    outer loop
      vertex 1.76777 -1.76777 10
      vertex 2.5 0 20
      vertex 2.5 0 10
    endloop
  endfacet
  facet normal -0.92388 0.382682 0
    outer loop
      vertex 2.5 0 20
      vertex 1.76777 -1.76777 10
      vertex 1.76777 -1.76777 20
    endloop
  endfacet
  facet normal 0.382687 0.923878 0
    outer loop
      vertex -0.822899 -2.15914 16.1326
      vertex 0 -2.5 20
      vertex 0 -2.5 16.1326
    endloop
  endfacet
  facet normal 0.382682 0.92388 1.45236e-06
    outer loop
      vertex 0 -2.5 20
      vertex -0.822899 -2.15914 16.1326
      vertex -1.76777 -1.76777 20
    endloop
  endfacet
  facet normal 0.382679 0.923881 8.52318e-07
    outer loop
      vertex -1.33148 -1.94848 14.5674
      vertex -1.76777 -1.76777 20
      vertex -0.822899 -2.15914 16.1326
    endloop
  endfacet
  facet normal 0.382682 0.92388 0
    outer loop
      vertex -1.76777 -1.76777 10
      vertex 0 -2.5 13.6
      vertex 0 -2.5 10
    endloop
  endfacet
  facet normal 0.38267 0.923885 0
    outer loop
      vertex -1.33148 -1.94848 14.5674
      vertex -1.76777 -1.76777 10
      vertex -1.76777 -1.76777 20
    endloop
  endfacet
  facet normal 0.382684 0.923879 -1.54987e-06
    outer loop
      vertex 0 -2.5 13.6
      vertex -1.76777 -1.76777 10
      vertex -1.33148 -1.94848 14.5674
    endloop
  endfacet
  facet normal 0.382682 -0.92388 1.45236e-06
    outer loop
      vertex -1.76777 1.76777 20
      vertex -0.822899 2.15914 16.1326
      vertex 0 2.5 20
    endloop
  endfacet
  facet normal 0.382679 -0.923881 8.52318e-07
    outer loop
      vertex -1.76777 1.76777 20
      vertex -1.33148 1.94848 14.5674
      vertex -0.822899 2.15914 16.1326
    endloop
  endfacet
  facet normal 0.38267 -0.923885 0
    outer loop
      vertex -1.76777 1.76777 10
      vertex -1.33148 1.94848 14.5674
      vertex -1.76777 1.76777 20
    endloop
  endfacet
  facet normal 0.382684 -0.923879 -1.54987e-06
    outer loop
      vertex -1.76777 1.76777 10
      vertex 0 2.5 13.6
      vertex -1.33148 1.94848 14.5674
    endloop
  endfacet
  facet normal 0.382682 -0.92388 0
    outer loop
      vertex 0 2.5 13.6
      vertex -1.76777 1.76777 10
      vertex 0 2.5 10
    endloop
  endfacet
  facet normal 0.382687 -0.923878 0
    outer loop
      vertex 0 2.5 20
      vertex -0.822899 2.15914 16.1326
      vertex 0 2.5 16.1326
    endloop
  endfacet
  facet normal 0.92388 -0.382682 0
    outer loop
      vertex -2.5 0 20
      vertex -1.76777 1.76777 10
      vertex -1.76777 1.76777 20
    endloop
  endfacet
  facet normal 0.92388 -0.382682 0
    outer loop
      vertex -1.76777 1.76777 10
      vertex -2.5 0 20
      vertex -2.5 0 10
    endloop
  endfacet
  facet normal -0.382682 0.92388 1.45236e-06
    outer loop
      vertex 1.76777 -1.76777 20
      vertex 0.822899 -2.15914 16.1326
      vertex 0 -2.5 20
    endloop
  endfacet
  facet normal -0.382679 0.923881 8.52318e-07
    outer loop
      vertex 1.76777 -1.76777 20
      vertex 1.33148 -1.94848 14.5674
      vertex 0.822899 -2.15914 16.1326
    endloop
  endfacet
  facet normal -0.38267 0.923885 0
    outer loop
      vertex 1.76777 -1.76777 10
      vertex 1.33148 -1.94848 14.5674
      vertex 1.76777 -1.76777 20
    endloop
  endfacet
  facet normal -0.382684 0.923879 -1.54987e-06
    outer loop
      vertex 1.76777 -1.76777 10
      vertex 0 -2.5 13.6
      vertex 1.33148 -1.94848 14.5674
    endloop
  endfacet
  facet normal -0.382682 0.92388 0
    outer loop
      vertex 0 -2.5 13.6
      vertex 1.76777 -1.76777 10
      vertex 0 -2.5 10
    endloop
  endfacet
  facet normal -0.382687 0.923878 0
    outer loop
      vertex 0 -2.5 20
      vertex 0.822899 -2.15914 16.1326
      vertex 0 -2.5 16.1326
    endloop
  endfacet
  facet normal -0.951054 0 -0.309026
    outer loop
      vertex 1.33148 -4.28596 14.5674
      vertex 0.822899 -2.15914 16.1326
      vertex 1.33148 -1.94848 14.5674
    endloop
  endfacet
  facet normal -0.951054 -0 -0.309026
    outer loop
      vertex 0.822899 -2.15914 16.1326
      vertex 1.33148 -4.28596 14.5674
      vertex 0.822899 -4.33942 16.1326
    endloop
  endfacet
  facet normal -0.951054 0 -0.309026
    outer loop
      vertex 1.33148 4.28596 14.5674
      vertex 0.822899 2.15914 16.1326
      vertex 0.822899 4.33942 16.1326
    endloop
  endfacet
  facet normal -0.951054 0 -0.309026
    outer loop
      vertex 0.822899 2.15914 16.1326
      vertex 1.33148 4.28596 14.5674
      vertex 1.33148 1.94848 14.5674
    endloop
  endfacet
  facet normal 0.587729 0 0.809058
    outer loop
      vertex 0 -2.5 13.6
      vertex -0.470378 -4.47535 13.9417
      vertex 0 -4.42591 13.6
    endloop
  endfacet
  facet normal 0.587794 -0 0.80901
    outer loop
      vertex -1.33148 -4.19556 14.5674
      vertex 0 -2.5 13.6
      vertex -1.33148 -1.94848 14.5674
    endloop
  endfacet
  facet normal 0.587823 -3.39743e-05 0.80899
    outer loop
      vertex 0 -2.5 13.6
      vertex -1.33148 -4.19556 14.5674
      vertex -0.470378 -4.47535 13.9417
    endloop
  endfacet
  facet normal 0.587729 0 0.809058
    outer loop
      vertex -0.470378 4.47535 13.9417
      vertex 0 2.5 13.6
      vertex 0 4.42591 13.6
    endloop
  endfacet
  facet normal 0.587823 3.39743e-05 0.80899
    outer loop
      vertex -1.33148 4.19556 14.5674
      vertex 0 2.5 13.6
      vertex -0.470378 4.47535 13.9417
    endloop
  endfacet
  facet normal 0.587794 0 0.80901
    outer loop
      vertex 0 2.5 13.6
      vertex -1.33148 4.19556 14.5674
      vertex -1.33148 1.94848 14.5674
    endloop
  endfacet
  facet normal 0 0 -1
    outer loop
      vertex 0.822899 -4.33942 16.1326
      vertex 0 -2.5 16.1326
      vertex 0.822899 -2.15914 16.1326
    endloop
  endfacet
  facet normal 0 0 -1
    outer loop
      vertex -0.470378 -4.47535 16.1326
      vertex 0 -2.5 16.1326
      vertex 0.822899 -4.33942 16.1326
    endloop
  endfacet
  facet normal 0 0 -1
    outer loop
      vertex -0.822899 -4.36081 16.1326
      vertex 0 -2.5 16.1326
      vertex -0.470378 -4.47535 16.1326
    endloop
  endfacet
  facet normal -0 0 -1
    outer loop
      vertex 0 -2.5 16.1326
      vertex -0.822899 -4.36081 16.1326
      vertex -0.822899 -2.15914 16.1326
    endloop
  endfacet
  facet normal 0 0 -1
    outer loop
      vertex 0 2.5 16.1326
      vertex 0.822899 4.33942 16.1326
      vertex 0.822899 2.15914 16.1326
    endloop
  endfacet
  facet normal 0 0 -1
    outer loop
      vertex 0 2.5 16.1326
      vertex -0.470378 4.47535 16.1326
      vertex 0.822899 4.33942 16.1326
    endloop
  endfacet
  facet normal 0 0 -1
    outer loop
      vertex -0.822899 4.36081 16.1326
      vertex 0 2.5 16.1326
      vertex -0.822899 2.15914 16.1326
    endloop
  endfacet
  facet normal 0 0 -1
    outer loop
      vertex 0 2.5 16.1326
      vertex -0.822899 4.36081 16.1326
      vertex -0.470378 4.47535 16.1326
    endloop
  endfacet
  facet normal -0.587794 0 0.80901
    outer loop
      vertex 0 -2.5 13.6
      vertex 1.33148 -4.28596 14.5674
      vertex 1.33148 -1.94848 14.5674
    endloop
  endfacet
  facet normal -0.587794 0 0.80901
    outer loop
      vertex 1.33148 -4.28596 14.5674
      vertex 0 -2.5 13.6
      vertex 0 -4.42591 13.6
    endloop
  endfacet
  facet normal -0.587794 0 0.80901
    outer loop
      vertex 0 2.5 13.6
      vertex 1.33148 4.28596 14.5674
      vertex 0 4.42591 13.6
    endloop
  endfacet
  facet normal -0.587794 0 0.80901
    outer loop
      vertex 1.33148 4.28596 14.5674
      vertex 0 2.5 13.6
      vertex 1.33148 1.94848 14.5674
    endloop
  endfacet
  facet normal 0.951054 0 -0.309026
    outer loop
      vertex -0.822899 -2.15914 16.1326
      vertex -1.33148 -4.19556 14.5674
      vertex -1.33148 -1.94848 14.5674
    endloop
  endfacet
  facet normal 0.951054 0 -0.309026
    outer loop
      vertex -1.33148 -4.19556 14.5674
      vertex -0.822899 -2.15914 16.1326
      vertex -0.822899 -4.36081 16.1326
    endloop
  endfacet
  facet normal 0.951054 0 -0.309026
    outer loop
      vertex -0.822899 2.15914 16.1326
      vertex -1.33148 4.19556 14.5674
      vertex -0.822899 4.36081 16.1326
    endloop
  endfacet
  facet normal 0.951054 0 -0.309026
    outer loop
      vertex -1.33148 4.19556 14.5674
      vertex -0.822899 2.15914 16.1326
      vertex -1.33148 1.94848 14.5674
    endloop
  endfacet
  facet normal -0.951055 0 -0.309022
    outer loop
      vertex 3.95106 -2.0504 2.69098
      vertex 3.58778 2.5504 3.80902
      vertex 3.95106 2.0504 2.69098
    endloop
  endfacet
  facet normal -0.951055 -0 -0.309022
    outer loop
      vertex 3.58778 2.5504 3.80902
      vertex 3.95106 -2.0504 2.69098
      vertex 3.58778 -2.5504 3.80902
    endloop
  endfacet
  facet normal 0.951057 0 -0.309015
    outer loop
      vertex 2.41221 -3.68991 3.80902
      vertex 2.04894 -2.66815 2.69098
      vertex 2.41221 -2.35337 3.80902
    endloop
  endfacet
  facet normal 0.951057 0 -0.309015
    outer loop
      vertex 2.04894 -2.66815 2.69098
      vertex 2.41221 -3.68991 3.80902
      vertex 2.04894 -3.89965 2.69098
    endloop
  endfacet
  facet normal 0.951057 0 -0.309015
    outer loop
      vertex 2.41221 3.68991 3.80902
      vertex 2.04894 2.66815 2.69098
      vertex 2.04894 3.89965 2.69098
    endloop
  endfacet
  facet normal 0.951057 0 -0.309015
    outer loop
      vertex 2.04894 2.66815 2.69098
      vertex 2.41221 3.68991 3.80902
      vertex 2.41221 2.35337 3.80902
    endloop
  endfacet
  facet normal 0.587852 0 0.808969
    outer loop
      vertex 2.94439 -1.89224 2.04041
      vertex 3 -3.35055 2
      vertex 3 -1.70284 2
    endloop
  endfacet
  facet normal 0.58778 -4.16015e-06 0.809021
    outer loop
      vertex 2.04894 -2.66815 2.69098
      vertex 3 -3.35055 2
      vertex 2.94439 -1.89224 2.04041
    endloop
  endfacet
  facet normal 0.587782 0 0.809019
    outer loop
      vertex 3 -3.35055 2
      vertex 2.04894 -2.66815 2.69098
      vertex 2.04894 -3.89965 2.69098
    endloop
  endfacet
  facet normal 0.587852 0 0.808969
    outer loop
      vertex 3 3.35055 2
      vertex 2.94439 1.89224 2.04041
      vertex 3 1.70284 2
    endloop
  endfacet
  facet normal 0.587782 -0 0.809019
    outer loop
      vertex 2.04894 2.66815 2.69098
      vertex 3 3.35055 2
      vertex 2.04894 3.89965 2.69098
    endloop
  endfacet
  facet normal 0.58778 4.16015e-06 0.809021
    outer loop
      vertex 3 3.35055 2
      vertex 2.04894 2.66815 2.69098
      vertex 2.94439 1.89224 2.04041
    endloop
  endfacet
  facet normal 0 0 -1
    outer loop
      vertex 3.58778 -2.5504 3.80902
      vertex 3.5 0 3.80902
      vertex 3.58778 2.5504 3.80902
    endloop
  endfacet
  facet normal 0 0 -1
    outer loop
      vertex 2.41221 -2.35337 3.80902
      vertex 3.58778 -2.5504 3.80902
      vertex 3.01109 -3.34415 3.80902
    endloop
  endfacet
  facet normal 0 0 -1
    outer loop
      vertex 3.58778 -2.5504 3.80902
      vertex 2.94439 -1.89224 3.80902
      vertex 3.5 0 3.80902
    endloop
  endfacet
  facet normal 0 0 -1
    outer loop
      vertex 2.41221 -2.35337 3.80902
      vertex 3.01109 -3.34415 3.80902
      vertex 2.41221 -3.68991 3.80902
    endloop
  endfacet
  facet normal 0 0 -1
    outer loop
      vertex 3.58778 -2.5504 3.80902
      vertex 2.41221 -2.35337 3.80902
      vertex 2.94439 -1.89224 3.80902
    endloop
  endfacet
  facet normal 0 0 -1
    outer loop
      vertex 2.94439 1.89224 3.80902
      vertex 3.58778 2.5504 3.80902
      vertex 3.5 0 3.80902
    endloop
  endfacet
  facet normal 0 0 -1
    outer loop
      vertex 2.41221 2.35337 3.80902
      vertex 3.58778 2.5504 3.80902
      vertex 2.94439 1.89224 3.80902
    endloop
  endfacet
  facet normal -0 0 -1
    outer loop
      vertex 3.58778 2.5504 3.80902
      vertex 2.41221 2.35337 3.80902
      vertex 3.01109 3.34415 3.80902
    endloop
  endfacet
  facet normal -0 0 -1
    outer loop
      vertex 3.01109 3.34415 3.80902
      vertex 2.41221 2.35337 3.80902
      vertex 2.41221 3.68991 3.80902
    endloop
  endfacet
  facet normal -0.58778 0 0.809021
    outer loop
      vertex 3.95106 2.0504 2.69098
      vertex 3.5 0 2.36327
      vertex 3.95106 -2.0504 2.69098
    endloop
  endfacet
  facet normal -0.587782 -1.33807e-06 0.809019
    outer loop
      vertex 3 1.70284 2
      vertex 3.95106 2.0504 2.69098
      vertex 3.01109 3.34415 2.00806
    endloop
  endfacet
  facet normal -0.587911 0 0.808925
    outer loop
      vertex 3 1.70284 2
      vertex 3.01109 3.34415 2.00806
      vertex 3 3.35055 2
    endloop
  endfacet
  facet normal -0.587782 7.06573e-07 0.809019
    outer loop
      vertex 3.95106 2.0504 2.69098
      vertex 3 1.70284 2
      vertex 3.5 0 2.36327
    endloop
  endfacet
  facet normal -0.587782 -7.06573e-07 0.809019
    outer loop
      vertex 3 -1.70284 2
      vertex 3.95106 -2.0504 2.69098
      vertex 3.5 0 2.36327
    endloop
  endfacet
  facet normal -0.587782 1.33807e-06 0.809019
    outer loop
      vertex 3.95106 -2.0504 2.69098
      vertex 3 -1.70284 2
      vertex 3.01109 -3.34415 2.00806
    endloop
  endfacet
  facet normal -0.587911 0 0.808925
    outer loop
      vertex 3.01109 -3.34415 2.00806
      vertex 3 -1.70284 2
      vertex 3 -3.35055 2
    endloop
  endfacet
  facet normal -0.95106 0 -0.309008
    outer loop
      vertex -2.29201 -2.64512 3.43907
      vertex -2.41221 -3.75106 3.80902
      vertex -2.41221 -2.45809 3.80902
    endloop
  endfacet
  facet normal -0.951056 1.74289e-06 -0.309018
    outer loop
      vertex -2.25 -3.89711 3.30977
      vertex -2.29201 -2.64512 3.43907
      vertex -2.04894 -2.75613 2.69098
    endloop
  endfacet
  facet normal -0.95106 4.08714e-07 -0.309006
    outer loop
      vertex -2.29201 -2.64512 3.43907
      vertex -2.25 -3.89711 3.30977
      vertex -2.41221 -3.75106 3.80902
    endloop
  endfacet
  facet normal -0.951055 0 -0.309021
    outer loop
      vertex -2.25 -3.89711 3.30977
      vertex -2.04894 -2.75613 2.69098
      vertex -2.04894 -3.96244 2.69098
    endloop
  endfacet
  facet normal -0.951055 0 -0.309021
    outer loop
      vertex -2.04894 2.75613 2.69098
      vertex -2.25 3.89711 3.30977
      vertex -2.04894 3.96244 2.69098
    endloop
  endfacet
  facet normal -0.951056 -1.74289e-06 -0.309018
    outer loop
      vertex -2.29201 2.64512 3.43907
      vertex -2.25 3.89711 3.30977
      vertex -2.04894 2.75613 2.69098
    endloop
  endfacet
  facet normal -0.95106 -4.08714e-07 -0.309006
    outer loop
      vertex -2.25 3.89711 3.30977
      vertex -2.29201 2.64512 3.43907
      vertex -2.41221 3.75106 3.80902
    endloop
  endfacet
  facet normal -0.95106 -0 -0.309008
    outer loop
      vertex -2.41221 3.75106 3.80902
      vertex -2.29201 2.64512 3.43907
      vertex -2.41221 2.45809 3.80902
    endloop
  endfacet
  facet normal 0.587786 0 0.809016
    outer loop
      vertex -3.64058 2.64503 2.46541
      vertex -3 1.54347 2
      vertex -3 3.22181 2
    endloop
  endfacet
  facet normal 0.587785 1.14241e-05 0.809017
    outer loop
      vertex -3 1.54347 2
      vertex -3.95106 1.94768 2.69098
      vertex -3.35822 0.986063 2.26027
    endloop
  endfacet
  facet normal 0.587781 -4.99144e-06 0.80902
    outer loop
      vertex -3.95106 1.94768 2.69098
      vertex -3 1.54347 2
      vertex -3.64058 2.64503 2.46541
    endloop
  endfacet
  facet normal 0.587785 -1.14241e-05 0.809017
    outer loop
      vertex -3.95106 -1.94768 2.69098
      vertex -3 -1.54347 2
      vertex -3.35822 -0.986063 2.26027
    endloop
  endfacet
  facet normal 0.587786 0 0.809016
    outer loop
      vertex -3 -1.54347 2
      vertex -3.64058 -2.64503 2.46541
      vertex -3 -3.22181 2
    endloop
  endfacet
  facet normal 0.587773 0 0.809026
    outer loop
      vertex -3.35822 0.986063 2.26027
      vertex -3.95106 1.94768 2.69098
      vertex -3.35822 -0.986063 2.26027
    endloop
  endfacet
  facet normal 0.587773 -0 0.809026
    outer loop
      vertex -3.95106 -1.94768 2.69098
      vertex -3.35822 -0.986063 2.26027
      vertex -3.95106 1.94768 2.69098
    endloop
  endfacet
  facet normal 0.587781 4.99144e-06 0.80902
    outer loop
      vertex -3 -1.54347 2
      vertex -3.95106 -1.94768 2.69098
      vertex -3.64058 -2.64503 2.46541
    endloop
  endfacet
  facet normal 0 0 -1
    outer loop
      vertex -3.58778 -2.69257 3.80902
      vertex -2.41221 -2.45809 3.80902
      vertex -2.41221 -3.75106 3.80902
    endloop
  endfacet
  facet normal -0 0 -1
    outer loop
      vertex -3.35822 -0.986063 3.80902
      vertex -3.58778 -2.69257 3.80902
      vertex -3.35822 0.986063 3.80902
    endloop
  endfacet
  facet normal -0 0 -1
    outer loop
      vertex -2.41221 -2.45809 3.80902
      vertex -3.58778 -2.69257 3.80902
      vertex -3.35822 -0.986063 3.80902
    endloop
  endfacet
  facet normal 0 0 -1
    outer loop
      vertex -3.58778 2.69257 3.80902
      vertex -2.41221 2.45809 3.80902
      vertex -3.35822 0.986063 3.80902
    endloop
  endfacet
  facet normal 0 0 -1
    outer loop
      vertex -2.41221 2.45809 3.80902
      vertex -3.58778 2.69257 3.80902
      vertex -2.41221 3.75106 3.80902
    endloop
  endfacet
  facet normal 0 0 -1
    outer loop
      vertex -3.58778 2.69257 3.80902
      vertex -3.35822 0.986063 3.80902
      vertex -3.58778 -2.69257 3.80902
    endloop
  endfacet
  facet normal -0.587762 0 0.809034
    outer loop
      vertex -2.04894 -2.75613 2.69098
      vertex -2.25 -3.89711 2.54491
      vertex -2.04894 -3.96244 2.69098
    endloop
  endfacet
  facet normal -0.587783 2.54203e-06 0.809019
    outer loop
      vertex -3 -3.22181 2
      vertex -2.04894 -2.75613 2.69098
      vertex -2.29201 -2.64512 2.51438
    endloop
  endfacet
  facet normal -0.587782 0 0.80902
    outer loop
      vertex -3 -3.22181 2
      vertex -2.29201 -2.64512 2.51438
      vertex -3 -1.54347 2
    endloop
  endfacet
  facet normal -0.587784 5.79696e-06 0.809018
    outer loop
      vertex -2.04894 -2.75613 2.69098
      vertex -3 -3.22181 2
      vertex -2.25 -3.89711 2.54491
    endloop
  endfacet
  facet normal -0.587762 0 0.809034
    outer loop
      vertex -2.25 3.89711 2.54491
      vertex -2.04894 2.75613 2.69098
      vertex -2.04894 3.96244 2.69098
    endloop
  endfacet
  facet normal -0.587784 -5.79696e-06 0.809018
    outer loop
      vertex -3 3.22181 2
      vertex -2.04894 2.75613 2.69098
      vertex -2.25 3.89711 2.54491
    endloop
  endfacet
  facet normal -0.587783 -2.54203e-06 0.809019
    outer loop
      vertex -2.04894 2.75613 2.69098
      vertex -3 3.22181 2
      vertex -2.29201 2.64512 2.51438
    endloop
  endfacet
  facet normal -0.587782 0 0.80902
    outer loop
      vertex -2.29201 2.64512 2.51438
      vertex -3 3.22181 2
      vertex -3 1.54347 2
    endloop
  endfacet
  facet normal 0.951036 9.49606e-05 -0.309079
    outer loop
      vertex -3.58778 2.69257 3.80902
      vertex -3.95106 1.94768 2.69098
      vertex -3.64058 2.64503 3.64654
    endloop
  endfacet
  facet normal 0.951055 0 -0.309022
    outer loop
      vertex -3.58778 2.69257 3.80902
      vertex -3.95106 -1.94768 2.69098
      vertex -3.95106 1.94768 2.69098
    endloop
  endfacet
  facet normal 0.951055 0 -0.309022
    outer loop
      vertex -3.58778 -2.69257 3.80902
      vertex -3.95106 -1.94768 2.69098
      vertex -3.58778 2.69257 3.80902
    endloop
  endfacet
  facet normal 0.951036 -9.49606e-05 -0.309079
    outer loop
      vertex -3.95106 -1.94768 2.69098
      vertex -3.58778 -2.69257 3.80902
      vertex -3.64058 -2.64503 3.64654
    endloop
  endfacet
endsolid OpenSCAD_Model
